<svg width="26" height="26" viewBox="0 0 26 26" fill="none" xmlns="http://www.w3.org/2000/svg">
<path d="M13 0C5.83 0 0 5.83 0 13C0 20.17 5.83 26 13 26C20.17 26 26 20.17 26 13C26 5.83 20.17 0 13 0ZM14 23.95V16H17C17.55 16 18 15.55 18 15C18 14.45 17.55 14 17 14H14V10.98C14 10.45 14.21 9.95 14.59 9.58C14.96 9.21 15.46 9 15.99 9H18C18.55 9 19 8.55 19 8C19 7.45 18.55 7 18 7H15.99C14.93 7 13.93 7.41 13.18 8.16C12.42 8.91 12 9.91 12 10.97V14H9C8.45 14 8 14.45 8 15C8 15.55 8.45 16 9 16H12V23.95C6.4 23.44 2 18.72 2 13C2 6.93 6.93 2 13 2C19.07 2 24 6.93 24 13C24 18.73 19.6 23.45 14 23.95Z" fill="#F0141E"/>
</svg>
