<svg width="26" height="26" viewBox="0 0 26 26" fill="none" xmlns="http://www.w3.org/2000/svg">
<path fill-rule="evenodd" clip-rule="evenodd" d="M13 9C10.7909 9 9 10.7909 9 13C9 15.2091 10.7909 17 13 17C15.2091 17 17 15.2091 17 13C17 10.7909 15.2091 9 13 9ZM7 13C7 9.68629 9.68629 7 13 7C16.3137 7 19 9.68629 19 13C19 16.3137 16.3137 19 13 19C9.68629 19 7 16.3137 7 13Z" fill="#F0141E"/>
<path fill-rule="evenodd" clip-rule="evenodd" d="M7.5 2.5C4.73858 2.5 2.5 4.73858 2.5 7.5V18.5C2.5 21.2614 4.73858 23.5 7.5 23.5H18.5C21.2614 23.5 23.5 21.2614 23.5 18.5V7.5C23.5 4.73858 21.2614 2.5 18.5 2.5H7.5ZM0.5 7.5C0.5 3.63401 3.63401 0.5 7.5 0.5H18.5C22.366 0.5 25.5 3.63401 25.5 7.5V18.5C25.5 22.366 22.366 25.5 18.5 25.5H7.5C3.63401 25.5 0.5 22.366 0.5 18.5V7.5Z" fill="#F0141E"/>
<path d="M19.5 8C20.3284 8 21 7.32843 21 6.5C21 5.67157 20.3284 5 19.5 5C18.6716 5 18 5.67157 18 6.5C18 7.32843 18.6716 8 19.5 8Z" fill="#F0141E"/>
</svg>
